<svg xmlns="http://www.w3.org/2000/svg" xmlns:xlink="http://www.w3.org/1999/xlink" width="1920" zoomAndPan="magnify" viewBox="0 0 1440 809.999993" height="1080" preserveAspectRatio="xMidYMid meet" version="1.0"><path fill="#000000" d="M 1567.707031 -131.675781 L -127.816406 -131.675781 L -127.816406 -126.675781 L 1567.707031 -126.675781 Z M 1562.925781 -1.636719 L -127.816406 -1.636719 L -127.816406 3.363281 L 1562.925781 3.363281 Z M 1562.925781 128.402344 L -127.816406 128.402344 L -127.816406 133.40625 L 1562.925781 133.40625 Z M 1562.925781 258.441406 L -127.816406 258.441406 L -127.816406 263.445312 L 1562.925781 263.445312 Z M 1562.925781 388.492188 L -127.816406 388.492188 L -127.816406 393.492188 L 1562.925781 393.492188 Z M 1562.925781 518.53125 L -127.816406 518.53125 L -127.816406 523.53125 L 1562.925781 523.53125 Z M 1562.925781 648.570312 L -127.816406 648.570312 L -127.816406 653.570312 L 1562.925781 653.570312 Z M 1562.925781 778.609375 L -127.816406 778.609375 L -127.816406 783.613281 L 1562.925781 783.613281 Z M 1562.925781 908.648438 L -127.816406 908.648438 L -127.816406 913.652344 L 1562.925781 913.652344 Z M 1562.925781 1038.6875 L -127.816406 1038.6875 L -127.816406 1043.691406 L 1562.925781 1043.691406 Z M 1562.925781 1168.738281 L -127.816406 1168.738281 L -127.816406 1173.738281 L 1562.925781 1173.738281 Z M 1562.925781 1298.777344 L -127.816406 1298.777344 L -127.816406 1303.777344 L 1562.925781 1303.777344 Z M 1562.925781 1428.816406 L -127.816406 1428.816406 L -127.816406 1433.820312 L 1562.925781 1433.820312 Z M 1562.925781 1558.855469 L -127.816406 1558.855469 L -127.816406 1563.859375 L 1562.925781 1563.859375 Z M -127.816406 -127.089844 L -127.816406 1563.410156 L -122.816406 1563.410156 L -122.816406 -127.089844 Z M 2.222656 -127.089844 L 2.222656 1563.410156 L 7.222656 1563.410156 L 7.222656 -127.089844 Z M 132.261719 -127.089844 L 132.261719 1563.410156 L 137.261719 1563.410156 L 137.261719 -127.089844 Z M 262.300781 -127.089844 L 262.300781 1563.410156 L 267.304688 1563.410156 L 267.304688 -127.089844 Z M 392.347656 -127.089844 L 392.347656 1563.410156 L 397.351562 1563.410156 L 397.351562 -127.089844 Z M 522.390625 -127.089844 L 522.390625 1563.410156 L 527.390625 1563.410156 L 527.390625 -127.089844 Z M 652.429688 -127.089844 L 652.429688 1563.410156 L 657.429688 1563.410156 L 657.429688 -127.089844 Z M 782.46875 -127.089844 L 782.46875 1563.410156 L 787.46875 1563.410156 L 787.46875 -127.089844 Z M 912.507812 -127.089844 L 912.507812 1563.410156 L 917.511719 1563.410156 L 917.511719 -127.089844 Z M 1042.546875 -127.089844 L 1042.546875 1563.410156 L 1047.550781 1563.410156 L 1047.550781 -127.089844 Z M 1172.597656 -127.089844 L 1172.597656 1563.410156 L 1177.597656 1563.410156 L 1177.597656 -127.089844 Z M 1302.636719 -127.089844 L 1302.636719 1563.410156 L 1307.636719 1563.410156 L 1307.636719 -127.089844 Z M 1432.675781 -127.089844 L 1432.675781 1563.410156 L 1437.679688 1563.410156 L 1437.679688 -127.089844 Z M 1562.714844 -127.089844 L 1562.714844 1563.410156 L 1567.71875 1563.410156 L 1567.71875 -127.089844 Z M 1562.714844 -127.089844 " fill-opacity="1" fill-rule="nonzero"/></svg>